name C:\Users\r0593348\3dpredictsim\Results\batch_windlass\Pog_s1_tmt_bCst_d00_k1000_WL40_ig24_pas.mot
datacolumns 128
datarows 4
range 0.00000000 0.03361403
endheader
time	pelvis_tilt	pelvis_list	pelvis_rotation	pelvis_tx	pelvis_ty	pelvis_tz	hip_flexion_l	hip_adduction_l	hip_rotation_l	hip_flexion_r	hip_adduction_r	hip_rotation_r	knee_angle_l	knee_angle_r	ankle_angle_l	ankle_angle_r	subtalar_angle_l	subtalar_angle_r	tmt_angle_l	tmt_angle_r	mtp_angle_l	mtp_angle_r	lumbar_extension	lumbar_bending	lumbar_rotation	arm_flex_l	arm_add_l	arm_rot_l	arm_flex_r	arm_add_r	arm_rot_r	elbow_flex_l	elbow_flex_r	pro_sup_l	pro_sup_r	glut_med1_l/activation	glut_med2_l/activation	glut_med3_l/activation	glut_min1_l/activation	glut_min2_l/activation	glut_min3_l/activation	semimem_l/activation	semiten_l/activation	bifemlh_l/activation	bifemsh_l/activation	sar_l/activation	add_long_l/activation	add_brev_l/activation	add_mag1_l/activation	add_mag2_l/activation	add_mag3_l/activation	tfl_l/activation	pect_l/activation	grac_l/activation	glut_max1_l/activation	glut_max2_l/activation	glut_max3_l/activation	iliacus_l/activation	psoas_l/activation	quad_fem_l/activation	gem_l/activation	peri_l/activation	rect_fem_l/activation	vas_med_l/activation	vas_int_l/activation	vas_lat_l/activation	med_gas_l/activation	lat_gas_l/activation	soleus_l/activation	tib_post_l/activation	flex_dig_l/activation	flex_hal_l/activation	tib_ant_l/activation	per_brev_l/activation	per_long_l/activation	per_tert_l/activation	ext_dig_l/activation	ext_hal_l/activation	ercspn_l/activation	intobl_l/activation	extobl_l/activation	glut_med1_r/activation	glut_med2_r/activation	glut_med3_r/activation	glut_min1_r/activation	glut_min2_r/activation	glut_min3_r/activation	semimem_r/activation	semiten_r/activation	bifemlh_r/activation	bifemsh_r/activation	sar_r/activation	add_long_r/activation	add_brev_r/activation	add_mag1_r/activation	add_mag2_r/activation	add_mag3_r/activation	tfl_r/activation	pect_r/activation	grac_r/activation	glut_max1_r/activation	glut_max2_r/activation	glut_max3_r/activation	iliacus_r/activation	psoas_r/activation	quad_fem_r/activation	gem_r/activation	peri_r/activation	rect_fem_r/activation	vas_med_r/activation	vas_int_r/activation	vas_lat_r/activation	med_gas_r/activation	lat_gas_r/activation	soleus_r/activation	tib_post_r/activation	flex_dig_r/activation	flex_hal_r/activation	tib_ant_r/activation	per_brev_r/activation	per_long_r/activation	per_tert_r/activation	ext_dig_r/activation	ext_hal_r/activation	ercspn_r/activation	intobl_r/activation	extobl_r/activation	
          0.00000000	         -2.92290638	         -2.07772227	          6.52205685	          0.00000000	          0.85913847	         -0.00345107	        -17.02437327	         -2.01209579	          7.66642794	         31.24624991	          2.49818629	         -3.43735874	        -10.55958468	        -14.79359844	          2.66292470	          7.56789082	         15.37778278	          0.27838189	        -11.77409652	         -0.32008274	         28.20337282	          0.70779519	         -1.28381188	          0.67542242	         -2.25734726	          8.24932018	        -13.48775753	         18.43831855	        -12.58661057	        -13.53765863	         10.51900890	         40.50843489	         13.59631244	         86.51662706	         86.51662706	          0.24039679	          0.09046059	          0.05000001	          0.25036699	          0.17812920	          0.08930279	          0.05000044	          0.05000007	          0.05000005	          0.06178287	          0.07141106	          0.17362236	          0.12724313	          0.05000111	          0.05000063	          0.05000020	          0.26132026	          0.05941144	          0.05000044	          0.05000051	          0.05000027	          0.05000018	          0.27396226	          0.53889308	          0.05000005	          0.05000013	          0.05000004	          0.25156619	          0.13047003	          0.05113032	          0.09022874	          0.23136576	          0.29916403	          0.19121484	          0.18030313	          0.17145878	          0.22641752	          0.05000003	          0.14224988	          0.18973063	          0.05000008	          0.10613732	          0.05000009	          0.05000001	          0.05000003	          0.05000040	          0.05933722	          0.05863541	          0.07322689	          0.05933707	          0.05933674	          0.05933649	          0.06045134	          0.05933716	          0.23133614	          0.05000008	          0.05000033	          0.11769378	          0.26612064	          0.11322379	          0.16652638	          0.13206064	          0.05000029	          0.05932541	          0.07860449	          0.05000034	          0.13413696	          0.11743372	          0.05590862	          0.05046150	          0.24891774	          0.05617070	          0.09121433	          0.05000009	          0.15820869	          0.16035520	          0.13424288	          0.05933721	          0.05522647	          0.05933722	          0.05000002	          0.05000015	          0.05000030	          0.54478822	          0.30610305	          0.18082504	          0.24593794	          0.61721162	          0.34629851	          0.05000004	          0.08132335	          0.09229452	
          0.01120468	         -2.91102260	         -2.13838668	          6.70692867	          0.01766027	          0.85827351	         -0.00319757	        -16.78356746	         -2.24371758	          7.48102881	         30.43947485	          2.91405389	         -3.23361087	        -12.69089593	        -14.57231466	          1.45755673	          7.00436646	         16.12017233	         -0.09374663	        -12.17477862	         -0.42585886	         28.65370696	          0.95703233	         -1.02822032	          0.90507650	         -2.35285400	          7.84604020	        -13.52717304	         18.49587145	        -13.80609473	        -13.51851596	         10.36668440	         41.71098784	         13.64047090	         86.51662706	         86.51662706	          0.20256827	          0.07622585	          0.05933734	          0.21096958	          0.15009904	          0.07525026	          0.05000184	          0.05000006	          0.05000015	          0.05206080	          0.06017394	          0.23697687	          0.29922104	          0.31082144	          0.12714886	          0.13962015	          0.22019933	          0.05006270	          0.05000014	          0.05000377	          0.05009227	          0.07041825	          0.23085191	          0.49129452	          0.05000046	          0.07041860	          0.06759771	          0.21198007	          0.11769452	          0.14841483	          0.11165396	          0.19495834	          0.25208796	          0.16112551	          0.15193087	          0.14447829	          0.19078877	          0.16094557	          0.11986568	          0.15987492	          0.05000014	          0.20375251	          0.10827523	          0.06185531	          0.07041818	          0.05933724	          0.05000000	          0.05000003	          0.13924908	          0.05000001	          0.05000001	          0.05000004	          0.05093880	          0.05000007	          0.19493340	          0.05000005	          0.05000018	          0.09917371	          0.22424483	          0.42882374	          0.30895067	          0.12110796	          0.05000004	          0.05000057	          0.11713918	          0.05933726	          0.15562866	          0.16039162	          0.05000001	          0.05000003	          0.57006782	          0.11779899	          0.11269811	          0.07041813	          0.24745492	          0.25223400	          0.21120354	          0.05000000	          0.05000000	          0.05000000	          0.05259094	          0.07041809	          0.07041660	          0.63445528	          0.33805198	          0.20966966	          0.37383945	          0.64321095	          0.29180581	          0.05000000	          0.06852641	          0.07777117	
          0.02240936	         -2.89487340	         -2.20976453	          6.85692708	          0.03543952	          0.85710438	         -0.00297853	        -16.44382945	         -2.45300596	          7.28541500	         29.48567005	          3.25393718	         -2.95521592	        -15.05057972	        -14.79499972	          0.30797962	          6.45019955	         16.76199732	         -0.50701270	        -12.10844075	         -0.82431100	         28.05959286	          1.15036447	         -0.76739561	          1.15423159	         -2.43255236	          7.37227710	        -13.56634853	         18.46337971	        -14.96452118	        -13.51658949	         10.33412118	         42.89976361	         13.61014305	         86.51662706	         86.51662706	          0.19906659	          0.06423106	          0.05000013	          0.17777171	          0.12647968	          0.06340902	          0.05000123	          0.05516273	          0.05933715	          0.05000004	          0.05070513	          0.19968669	          0.30638671	          0.26191102	          0.10714106	          0.11764976	          0.26720995	          0.08356874	          0.06781270	          0.05000192	          0.05000273	          0.05933747	          0.19452538	          0.46304679	          0.05933737	          0.05933771	          0.05696064	          0.17862316	          0.09917427	          0.12506047	          0.09408424	          0.16427994	          0.21241972	          0.13577101	          0.12802325	          0.12174341	          0.16076654	          0.23200110	          0.14152001	          0.16865447	          0.14502233	          0.26855714	          0.09915323	          0.08551346	          0.05933727	          0.05000003	          0.32026986	          0.30702128	          0.38026535	          0.26266746	          0.05799363	          0.28042301	          0.09909526	          0.11190686	          0.18152966	          0.05000002	          0.05000015	          0.08356801	          0.24297654	          0.36134461	          0.26033494	          0.17295323	          0.05000008	          0.07041843	          0.13220721	          0.05000005	          0.17963373	          0.15306490	          0.05406849	          0.05000012	          0.48036268	          0.09926233	          0.28189371	          0.05933723	          0.20851579	          0.21254290	          0.17796887	          0.05933721	          0.05933720	          0.05933722	          0.05000002	          0.05933724	          0.05933722	          0.62344477	          0.36732144	          0.17667633	          0.60246812	          0.69786734	          0.24588764	          0.05352258	          0.07980284	          0.06553320	
          0.03361403	         -2.87672466	         -2.29246917	          6.96741841	          0.05308725	          0.85568707	         -0.00274562	        -15.96716979	         -2.64436483	          7.10115218	         28.45178360	          3.57002499	         -2.64950685	        -17.67782829	        -15.08611104	         -0.69706926	          6.28729624	         17.29910958	         -0.93617594	        -11.40987692	         -1.42640385	         26.04767638	          1.35459680	         -0.52385091	          1.42015260	         -2.49984164	          6.87508299	        -13.60812694	         18.36806792	        -16.00639675	        -13.52812224	         10.42820250	         44.03397810	         13.48028793	         86.51662706	         86.51662706	          0.16774183	          0.05415699	          0.05000006	          0.24164207	          0.10657740	          0.05872143	          0.05000145	          0.05000005	          0.05000007	          0.05000011	          0.05938166	          0.16826428	          0.25817410	          0.22069706	          0.09028153	          0.09913657	          0.31027417	          0.07041853	          0.05714184	          0.05000072	          0.05000029	          0.05000027	          0.16391517	          0.43999832	          0.05000014	          0.05000054	          0.05000007	          0.15051525	          0.08356834	          0.10538112	          0.07927927	          0.13842906	          0.17899363	          0.11440625	          0.12125446	          0.10258613	          0.13546870	          0.20582358	          0.11925064	          0.14211524	          0.12220182	          0.30532064	          0.08355064	          0.11744861	          0.05000003	          0.05000001	          0.42261819	          0.48048380	          0.55274578	          0.31106040	          0.31058231	          0.43229260	          0.08350182	          0.12740494	          0.15296439	          0.07041835	          0.05000019	          0.07041786	          0.20474207	          0.30448392	          0.23387354	          0.19094811	          0.05000006	          0.05933757	          0.12432218	          0.30097170	          0.24300108	          0.19359128	          0.05000002	          0.05000002	          0.40477343	          0.08364260	          0.27307484	          0.05000000	          0.17570417	          0.25746540	          0.15463293	          0.05000000	          0.05000000	          0.05000000	          0.05000000	          0.05000007	          0.05000003	          0.77723254	          0.30952027	          0.14887480	          0.77244601	          0.74391104	          0.53121377	          0.08307714	          0.07041812	          0.05522098	
